<svg xmlns="http://www.w3.org/2000/svg" width="18" height="18" viewBox="0 0 18 18">
  <g fill="none" fill-rule="evenodd">
    <rect width="18" height="16" y="1" fill="#FF8282" rx="2"/>
    <path fill="#FFF" fill-rule="nonzero" d="M13.133 12.455h-1.862V13.5H9.184v-1.045H8v-1.669h1.184v-.34H8V8.771h1.184V4.5h3.438c.662 0 1.25.126 1.763.377.514.251.911.609 1.193 1.073.281.463.422.987.422 1.573 0 .902-.308 1.615-.925 2.138-.617.524-1.448.785-2.495.785H11.27v.34h1.862v1.67zm-1.862-3.684h1.28c.887 0 1.332-.412 1.332-1.236 0-.404-.111-.73-.334-.977-.222-.247-.525-.373-.91-.377h-1.368v2.59zM6.036 13.5H4V6.849l-2 .6V5.865L5.849 4.5h.187z"/>
  </g>
</svg>
