<svg xmlns="http://www.w3.org/2000/svg" width="40" height="40" viewBox="0 0 40 40"><g fill="none"><path fill="#DC4C4C" d="M30.715 3.555C29.523 1.249 28.096.08 26.473.08c-1.87 0-3.81 1.58-5.771 4.699-.25.4-.486.798-.702 1.184a27.721 27.721 0 0 0-.704-1.184c-1.96-3.12-3.9-4.7-5.77-4.7-1.623 0-3.05 1.17-4.242 3.475-.89 1.725-.569 2.964-.143 3.7.768 1.325 2.484 2.218 5.247 2.728 2.122.393 4.367.451 5.516.451h.191c1.15 0 3.395-.058 5.516-.45 2.763-.511 4.479-1.404 5.248-2.73.425-.735.747-1.974-.144-3.7z"/><path fill="#4AD9BD" d="M35.832 15.019H4.167c-.92 0-1.667.772-1.667 1.724v21.532c0 .952.746 1.724 1.667 1.724h31.665c.92 0 1.667-.772 1.667-1.724V16.743c0-.952-.747-1.724-1.667-1.724z"/><path fill="#4AD9BD" d="M40 18.192c0 .952-.748 1.724-1.668 1.724H1.667c-.92 0-1.667-.772-1.667-1.724V9.568c0-.953.746-1.726 1.667-1.726h36.665c.92 0 1.667.773 1.667 1.726v8.624z"/><path fill="#F45F5F" d="M15.833 7.842h8.335v12.072h-8.335z"/><path fill="#35BEA3" d="m2.5 21.622 35 3.293V19.97h-35z"/><path fill="#F45F5F" d="M15.833 19.915h8.335V40h-8.335z"/><path fill="#DC4C4C" d="m15.833 22.876 8.334.784v-3.69h-8.334z"/></g></svg>