<svg xmlns="http://www.w3.org/2000/svg" width="40" height="40" viewBox="0 0 40 40">
    <g fill="none" fill-rule="evenodd">
        <path fill="#1BAAEC" d="M36.97 10.303h-7.273v-4.04a.808.808 0 0 0-.237-.571L26.23 2.46a.8.8 0 0 0-.366-.196.759.759 0 0 0-.101-.02c-.036-.005-.068-.022-.105-.022h-8.081a.808.808 0 0 0-.808.809v3.232c0 .447.361.808.808.808h7.272v3.232h-9.696V3.031a.807.807 0 0 0-1.38-.572L10.54 5.692a.807.807 0 0 0-.237.571v4.04H3.03a.808.808 0 0 0-.808.808v23.434a3.236 3.236 0 0 0 3.233 3.233h29.09a3.236 3.236 0 0 0 3.233-3.233V11.111a.808.808 0 0 0-.808-.808z"/>
        <path fill="#FFF" fill-rule="nonzero" d="M12.474 21.023c0 .91.075 1.565.226 1.969.15.403.377.604.679.604.301 0 .526-.197.672-.593.147-.395.22-1.055.22-1.98 0-.91-.073-1.566-.22-1.969-.146-.403-.37-.605-.672-.605-.31 0-.538.206-.685.617-.147.411-.22 1.063-.22 1.957zm5.394-.048c0 1.74-.393 3.086-1.179 4.039-.786.952-1.905 1.429-3.358 1.429-1.366 0-2.447-.492-3.245-1.477-.798-.984-1.197-2.314-1.197-3.99 0-1.74.389-3.078 1.167-4.015.778-.937 1.87-1.405 3.275-1.405 1.39 0 2.493.486 3.31 1.458.818.973 1.227 2.293 1.227 3.961zm8.682-5.17l-9.658 17.339h-3.537l9.658-17.34h3.537zm-.834 12.12c0 .91.076 1.566.227 1.969.15.403.377.605.678.605.342 0 .578-.231.709-.694.131-.462.196-1.09.196-1.88 0-.79-.065-1.417-.196-1.88-.131-.462-.367-.693-.709-.693-.31 0-.537.205-.684.616-.147.412-.22 1.064-.22 1.957zm5.395-.047c0 1.731-.395 3.073-1.185 4.026-.79.953-1.907 1.43-3.352 1.43-1.366 0-2.448-.493-3.245-1.477-.798-.985-1.197-2.31-1.197-3.98 0-1.739.389-3.077 1.167-4.014.778-.937 1.87-1.405 3.275-1.405 1.39 0 2.493.486 3.31 1.459.818.972 1.227 2.293 1.227 3.96z"/>
    </g>
</svg>
