<svg xmlns="http://www.w3.org/2000/svg" width="40" height="40" viewBox="0 0 40 40"><path fill="#FFF" fill-rule="evenodd" d="M22.158 31.867h.24l-.001.113v.114a11.535 11.535 0 0 1-.034.62l-.018.192-.013.127a10.108 10.108 0 0 1-.491 2.167c-.587 1.7-1.6 3.22-2.953 4.416l-.216.191-.16.06h-8.275c-.077 0-.15.005-.22.015l-.727.095 2.105-2.006.166-.066h6.274a8.363 8.363 0 0 0 2.062-3.17c.046-.122.088-.241.17-.429.007-.036-.008.007-.04.098.06.171.06.171.07.168l-.06-.24a7.917 7.917 0 0 0 .314-1.444 8.55 8.55 0 0 0 .038-1.665 9.532 9.532 0 0 0-.07-.602 6.67 6.67 0 0 0-.04-.242 3.491 3.491 0 0 0-.038-.2 2.544 2.544 0 0 0-.047-.206 2.857 2.857 0 0 0-.049-.198 7.352 7.352 0 0 0-.262-.823 8.512 8.512 0 0 0-8.204-5.45 7.369 7.369 0 0 0-1.16.102l-.202-.06c-.584-.534-.957-.88-1.325-1.23l-.304-.29.406-.111c.215-.06.429-.112.643-.157l-.041-.047.463-.048.296-.03c.49-.07.977-.104 1.473-.104 4.093 0 7.765 2.35 9.48 5.95a140.805 140.805 0 0 0 .085.186c.09.2.17.39.257.662l-.016-.084a8.94 8.94 0 0 1 .265.797 9.152 9.152 0 0 1 .235 1.002c.032.176.059.349.079.513.019.153.025.201.03.259.037.345.055.698.055 1.055h-.24zm-5.417 3.998h.24v.711h-1.983v-.711l-.003-.165-.002-.065c.018.01.038.047.067.099l-.058-.127.058-.206c-.052.093-.075.134-.069.181l-.008-.107-.008-.109-.01-.105-.015-.126a4.41 4.41 0 0 0-.022-.157 1.785 1.785 0 0 0-.022-.139 5.305 5.305 0 0 0-.054-.276l-.019-.083-.019-.075-.022-.086-.021-.083c-.014-.05-.028-.1-.047-.157a2.327 2.327 0 0 0-.055-.172 6.927 6.927 0 0 0-.237-.62l-.042-.099a14.53 14.53 0 0 0-.115-.245l-.04-.084a2.832 2.832 0 0 0-.059-.113 3.595 3.595 0 0 0-.074-.14l-.027-.052a6.832 6.832 0 0 0-.2-.35 3.678 3.678 0 0 0-.088-.147 13.633 13.633 0 0 0-.75-1.083c-.997-1.3-2.108-2.412-4.328-4.44l-.31-.283-.076-.07-.161-.147a46.215 46.215 0 0 1-.322-.294c-1.829-1.672-2.847-2.7-3.668-3.782a26.951 26.951 0 0 1-1.466-2.108l-.676-1.08.056.016c-.092-.17-.182-.34-.27-.513l-.243-.478.52.14c.087.024.176.05.267.078.287.088.465.152 1.073.379.283.108.553.207.825.302l.124.1a25.4 25.4 0 0 0 1.353 1.951c.17.223.346.44.526.648.357.41.761.837 1.22 1.29.33.328.685.666 1.148 1.097.318.294.637.587 1.116 1.024l.274.25.139.125c2.43 2.224 3.724 3.555 4.834 5.136.096.139.17.246.238.35.123.185.235.361.338.536l.079.133c.04.068.04.068.075.132.05.086.1.175.151.275.065.117.126.238.189.37l.055.114.051.11c.077.167.146.326.206.48l.035.09.045.118.027.077.026.07.051.153.037.115c.04.125.069.22.104.348l.014.057.022.086c.016.056.03.114.044.182l.035.156a9.266 9.266 0 0 1 .097.57c.01.072.01.072.009.079l.016.129.017.159.017.234c.004.076.007.152.008.228.003.123.003.123.003.2h-.24zM19.125 0l.096.164.27.465c.56.965.645 2.113.227 3.155a3.6 3.6 0 0 1-1.124 1.506 1.863 1.863 0 0 0 1.504.143l-.005-.034.209-.053.045-.018a.26.26 0 0 1 .06.005c.079-.056.14-.083.197-.114.218-.11.4-.253.55-.429l.155-.18 1.4 1.17-.156.183a3.6 3.6 0 0 1-.78.675l-3.004 2.86-.164-.205a6.403 6.403 0 0 0-.906-.924l-.205-.17 1.036-.99a3.73 3.73 0 0 1-1.823-1.144 3.756 3.756 0 0 1-2.327-.502l-.001 1.348-.263-.026a6.989 6.989 0 0 0-1.306.01l-.265.027v-.264l.003-4.185V1.96l.031-.04.221.01.682.031h.9v.281a1.813 1.813 0 0 0 .073.594l.09.22.032.084.018.033.027.051.136.239c.2.309.499.547.855.685.08.032.164.058.249.078a3.599 3.599 0 0 1 .222-1.865A3.654 3.654 0 0 1 18.426.214l.7-.214zm-.79 1.984c-.342.23-.61.558-.766.949l-.007.017a2.018 2.018 0 0 0-.141.658c-.01.187.006.37.047.546.156-.103.292-.223.41-.362.152-.172.27-.369.357-.582l.005-.015a2.02 2.02 0 0 0 .095-1.21zM39.76 23.852H40c0 .116-.002.221-.006.314a14.758 14.758 0 0 1-.049.862 12.858 12.858 0 0 1-.155 1.134l-.03.158c-.015.08-.015.08-.032.159a10.42 10.42 0 0 1-.162.682 10.017 10.017 0 0 1-.304.982 12.558 12.558 0 0 1-1.364 2.748.608.608 0 0 1-.036.062c-.015.02-.442.662-1.28 1.928l-.126-.54-.397-1.694-.05-.206-.026-.105-.025-.1a31.063 31.063 0 0 0-.099-.367c-.134-.49-.258-.9-.39-1.286l-.098-.33c-.053-.113-.11-.27-.165-.414l-.05-.127-.048-.124c-.036-.094-.036-.094-.074-.187l-.056-.141a14.504 14.504 0 0 0-.151-.358 10.248 10.248 0 0 0-.202-.456 20.85 20.85 0 0 0-.542-1.115l-.036-.07a22.742 22.742 0 0 0-1.125-1.9 19.36 19.36 0 0 0-.635-.93l-.037-.203c.164-.588.374-1.153.633-1.698l.165-.348.24.302c.153.192.305.39.456.594l.175.225.192.282.228.334c.204.3.396.593.578.885l.067.11.112.185c.057.092.115.19.179.3.047.079.086.146.163.282.13.232.244.438.374.746l-.028-.11c.066.122.128.243.219.423l.036.072a16.485 16.485 0 0 1 .326.68c.047.097.089.186.123.269l.039.086.037.085c.06.133.115.26.164.377.014.033.014.033.037.136l-.019-.092c.137.32.266.651.388.988.053.143.104.285.154.426a10.8 10.8 0 0 0 .665-2.755 10.93 10.93 0 0 0-.075-2.893l-.02-.12-.02-.113-.021-.11-.021-.107a10.388 10.388 0 0 0-.31-1.175 11.02 11.02 0 0 0-2.81-4.506 12.592 12.592 0 0 0-2.866 3.73 12.42 12.42 0 0 0-.785 1.976 10.203 10.203 0 0 0-.176.661c-.034.14-.058.249-.08.363-.015.07-.027.133-.049.25l-.017.094a12.247 12.247 0 0 0-.117.862l-.01.095-.008.097a11.729 11.729 0 0 0-.038.647l-.005.137-.001.095a8.639 8.639 0 0 0-.003.185c0 .09 0 .09.002.174l.004.17c.005.203.016.407.033.618a14.977 14.977 0 0 0 3.378 8.881c.188.232.39.466.61.706a15.532 15.532 0 0 0 2.744 2.345l2.684 1.793H21.86c-.083 0-.165.006-.242.018l-.751.115 2.127-2.028.166-.067h10.77a17.11 17.11 0 0 1-.846-.855 16.929 16.929 0 0 1-4.504-10.765 10.65 10.65 0 0 1-.016-.237l-.01-.175a9.783 9.783 0 0 1-.011-.346 8.556 8.556 0 0 1-.005-.34c0-.185.001-.299.006-.415a9.501 9.501 0 0 1 .02-.45l.005-.08c.01-.145.014-.214.022-.29a13.332 13.332 0 0 1 .234-1.625c.025-.123.052-.25.087-.403.04-.161.052-.21.067-.258.017-.077.034-.136.07-.267a5.99 5.99 0 0 1 .068-.239l.033-.105c.02-.071.043-.145.069-.22l.029-.09a14.166 14.166 0 0 1 .784-1.897 14.432 14.432 0 0 1 4.038-4.917l.657-.512.148.124.47.391a12.997 12.997 0 0 1 4.148 6.338c.075.265.14.517.197.77l.023.111.048.23a13.221 13.221 0 0 1 .047.259l.016.088a13.425 13.425 0 0 1 .097.702l.018.174.017.181.008.114c.01.145.013.182.016.247.005.073.007.136.011.273l.006.14.003.218c0 .024-.08.049-.24.073zM13.34 8.142c2.137 0 4.04 1.27 4.863 3.174 4.15.807 8.06 2.65 11.323 5.336l.162.134-.112.177a14.2 14.2 0 0 0-.734 1.298l-.136.273-.234-.197a22.944 22.944 0 0 0-.551-.45l-.134-.1-.256-.196a23.461 23.461 0 0 0-10.177-4.43l-.198-.035a4.932 4.932 0 0 0-.35-.06l-.205-.029v-.191a3.211 3.211 0 0 0-.636-1.458 3.31 3.31 0 0 0-2.626-1.285c-1.629 0-3.01 1.175-3.262 2.742l-.027.186-.178.025a20.79 20.79 0 0 0-1.523.27 26.38 26.38 0 0 0-3.059.855c-.116.054-.313.127-.518.207-.315.121-.631.251-.961.395-.125.05-.235.098-.346.149.19.06.387.128.6.205.16.056.3.109.547.202l.29.109c1.378.51 2.257.709 3.585.709 1.332 0 2.445-.245 3.263-.71a3.068 3.068 0 0 1-.634-1.566c-.009-.049-.009-.049-.012-.086a4.09 4.09 0 0 1-.02-.32 2.739 2.739 0 0 1-.001-.247c.004-.057.004-.057.012-.125.007-.062.007-.067.022-.142a2.118 2.118 0 0 1 2.094-1.748c1.082 0 1.989.8 2.11 1.863.006.062.01.119.01.193.006.08.008.164.008.27 0 .855-.435 1.677-1.138 2.432a5.645 5.645 0 0 1-.35.354l-.152.138-.114.098c-.032.028-.058.05-.113.092l-.058.046-.063.049-.117.085c-.077.056-.16.112-.226.15a.17.17 0 0 1-.056.032c-.135.09-.264.165-.388.227l-.079.041c-.124.064-.16.08-.197.096-.14.066-.283.126-.376.152a.23.23 0 0 1-.088.042 5.03 5.03 0 0 1-.286.1 6.79 6.79 0 0 1-.719.2 10.3 10.3 0 0 1-2.332.247c-1.399 0-2.512-.215-3.772-.65a33.49 33.49 0 0 1-.806-.295c-.258-.098-.382-.144-.428-.175l-.1-.021a31.821 31.821 0 0 1-1.763-.762 43.6 43.6 0 0 1-.678-.325 13.01 13.01 0 0 1-.927-.496l.058.04.014.009a.957.957 0 0 1-.077-.052L0 15.063l.331-.34c.077-.079.133-.136.205-.207a5.23 5.23 0 0 1 .494-.437 9.295 9.295 0 0 1 .825-.53l.058-.034a8.948 8.948 0 0 1 1.037-.507c.04-.02.04-.02.07-.032a25.354 25.354 0 0 1 5.467-1.686 5.295 5.295 0 0 1 4.852-3.148zm-.13 4.788a.382.382 0 0 0-.366.263l-.01.05-.008.128a2.137 2.137 0 0 0 .073.559c.063.213.163.39.303.535.226-.304.36-.59.394-.834a.669.669 0 0 0 .005-.091 3.91 3.91 0 0 0-.004-.186l-.001-.044c0-.017-.003-.031-.005-.045a.379.379 0 0 0-.38-.335z"/></svg>