<svg xmlns="http://www.w3.org/2000/svg" width="120" height="100" viewBox="0 0 120 100"><path d="m11.386 68.723-.209-.108-.4-.198a4.132 4.132 0 0 0-1.108-.364 26.847 26.847 0 0 1-.456-.022A13.75 13.75 0 0 0 8.38 68c-.74 0-1.468.135-2.13.392a4.718 4.718 0 0 0-1.769 1.219c-.477.52-.86 1.2-1.121 1.991-.254.803-.386 1.707-.386 2.702v1.652H0v.994c0 .54.424.993 1.068.993l1.942.04v15.375h2.162V77.996h5.948v-2.058H5.172v-1.652c0-.837.093-1.537.281-2.114.176-.538.41-.97.696-1.271.277-.311.597-.53.976-.668a3.78 3.78 0 0 1 1.346-.228c.465 0 .755.034.909.085.352.126.62.181.839.181.428 0 .787-.26.958-.705l.148-.613.061-.23zM25.87 75.95l-.52-.247a8.171 8.171 0 0 0-1.5-.517 8.542 8.542 0 0 0-1.772-.19 6.82 6.82 0 0 0-2.352.394 5.607 5.607 0 0 0-1.913 1.168 2.21 2.21 0 0 0-.277.273l-.415.49v-.94a1.09 1.09 0 0 0-1.117-1.119h-.972v18.113h2.161V81.904l.01-.068c.478-1.536 1.124-2.74 1.93-3.59.755-.782 1.74-1.173 2.963-1.173.388 0 .678.022.915.076.167.036.618.14.638.144.14.041.447.152.452.155.26.112.446.158.627.158.363 0 .671-.167.897-.5l.389-.74.144-.283-.288-.132zm85.984-.954c-1.317 0-2.487.23-3.488.689a7.388 7.388 0 0 0-2.584 1.943c-.693.84-1.214 1.828-1.561 2.974-.339 1.123-.513 2.38-.513 3.716 0 1.339.175 2.596.512 3.698.349 1.134.872 2.122 1.561 2.957a6.906 6.906 0 0 0 2.6 1.942c1.014.448 2.171.673 3.473.673 1.29 0 2.464-.227 3.474-.673a6.904 6.904 0 0 0 2.598-1.941c.69-.836 1.213-1.824 1.561-2.957.34-1.126.513-2.367.513-3.699 0-1.336-.175-2.593-.513-3.715-.352-1.144-.878-2.147-1.56-2.973a7.298 7.298 0 0 0-2.603-1.945c-1-.459-2.17-.689-3.47-.689zm0 16.516c-1.012 0-1.908-.169-2.64-.501a5.04 5.04 0 0 1-1.834-1.399 6.23 6.23 0 0 1-1.123-2.247 11.25 11.25 0 0 1-.406-3.064c0-1.144.134-2.173.406-3.067.27-.908.65-1.67 1.143-2.265a5.078 5.078 0 0 1 1.832-1.414c.75-.341 1.636-.519 2.622-.519 1.02 0 1.898.172 2.621.519a4.93 4.93 0 0 1 1.834 1.416c.5.621.878 1.373 1.142 2.267.268.96.405 1.977.405 3.063 0 1.144-.134 2.173-.406 3.066-.265.897-.644 1.647-1.142 2.248a5.037 5.037 0 0 1-1.833 1.396c-.73.332-1.625.5-2.621.5zm-15.05-15.45-.125-.036a6.812 6.812 0 0 0-1.571-.704c-.662-.218-1.426-.326-2.269-.326-.971 0-1.864.152-2.658.447a6.094 6.094 0 0 0-2.066 1.248 5.398 5.398 0 0 0-1.348 1.959 6.532 6.532 0 0 0-.452 2.436c0 1.135.243 2.145.73 3.037.236.448.543.856.913 1.221l.167.164-.167.164a4.81 4.81 0 0 0-.53.622 4.782 4.782 0 0 0-.498.913c-.133.345-.2.69-.2 1.018 0 .834.25 1.501.742 1.985l.196.194-.226.159a6.795 6.795 0 0 0-1.012.842c-.806.828-1.215 1.836-1.215 3 0 .749.192 1.472.566 2.126.366.653.905 1.227 1.603 1.697.664.447 1.488.81 2.437 1.069.917.256 1.99.382 3.216.382 1.174 0 2.27-.154 3.248-.452.995-.297 1.85-.714 2.543-1.243a6.349 6.349 0 0 0 1.7-1.845c.42-.741.637-1.52.637-2.302 0-.912-.246-1.664-.72-2.248a4.2 4.2 0 0 0-1.746-1.213c-.646-.258-1.382-.43-2.206-.517a43.918 43.918 0 0 0-2.313-.177l-.568-.026-1.687-.08a9.827 9.827 0 0 1-1.813-.256c-.432-.111-.771-.264-1.062-.487a.511.511 0 0 1-.101-.124c-.073-.119-.112-.276-.112-.484a.77.77 0 0 1 .087-.347c.056-.146.134-.28.287-.505.158-.2.311-.36.47-.484.06-.058.105-.092.198-.153l.101-.066.113.043c.816.307 1.742.464 2.746.464.978 0 1.848-.142 2.622-.43a6.077 6.077 0 0 0 2.084-1.248 5.488 5.488 0 0 0 1.35-1.945c.309-.727.468-1.565.468-2.45a6.31 6.31 0 0 0-.48-2.483c-.025-.06-.06-.125-.072-.148l-.167-.33.374-.005 1.229-.018c.264 0 .503-.085.72-.253.264-.203.415-.506.415-.83v-.975h-4.578zm-3.965 9.039c-.712 0-1.347-.098-1.881-.298a3.795 3.795 0 0 1-1.344-.813c-.356-.332-.63-.742-.848-1.25-.205-.478-.307-1.052-.307-1.671 0-.63.1-1.19.305-1.667a3.54 3.54 0 0 1 .85-1.254c.362-.339.801-.604 1.34-.812.542-.203 1.161-.3 1.885-.3.712 0 1.347.099 1.881.298.514.18.96.455 1.344.814.363.338.637.755.831 1.253.206.497.306 1.056.306 1.668 0 .627-.1 1.186-.304 1.681-.198.508-.475.924-.828 1.235-.344.34-.802.608-1.34.797-.522.21-1.167.319-1.89.319zm.216 12.502c-.947 0-1.79-.096-2.493-.292-.701-.182-1.305-.44-1.786-.762-.463-.317-.815-.66-1.043-1.033-.228-.388-.338-.746-.338-1.146 0-.346.059-.644.185-.933a2.91 2.91 0 0 1 .581-.823c.242-.257.558-.485.96-.702.311-.17.669-.333 1.072-.492l.123-.014c.664.102 1.218.16 1.796.175a3207.992 3207.992 0 0 1 2.145.107c.784.04 1.448.096 2.036.179.643.08 1.147.195 1.557.371.383.16.68.359.904.62.182.224.268.54.268.944 0 .523-.14.976-.434 1.421-.293.451-.713.846-1.28 1.225-.584.365-1.24.65-1.947.842-.677.211-1.463.313-2.306.313zM73.968 74.997c-1.317 0-2.487.23-3.487.689a7.388 7.388 0 0 0-2.585 1.943c-.692.84-1.214 1.828-1.56 2.974-.34 1.123-.514 2.38-.514 3.716 0 1.339.175 2.596.513 3.698.348 1.134.872 2.122 1.56 2.957a6.906 6.906 0 0 0 2.6 1.942c1.014.448 2.171.673 3.473.673 1.29 0 2.464-.227 3.474-.673a6.907 6.907 0 0 0 2.6-1.943c.679-.806 1.206-1.807 1.56-2.956.337-1.102.512-2.36.512-3.698 0-1.336-.174-2.593-.512-3.715-.352-1.144-.879-2.147-1.56-2.973a7.099 7.099 0 0 0-2.604-1.945c-1-.459-2.169-.689-3.47-.689zm0 16.516c-1.012 0-1.908-.169-2.64-.501a5.036 5.036 0 0 1-1.83-1.396c-.5-.6-.879-1.351-1.145-2.25a11.25 11.25 0 0 1-.405-3.064c0-1.144.134-2.173.406-3.067.269-.908.649-1.67 1.143-2.265a5.078 5.078 0 0 1 1.832-1.414c.75-.341 1.635-.519 2.621-.519 1.02 0 1.898.172 2.622.519a5.08 5.08 0 0 1 1.834 1.416c.5.621.877 1.373 1.141 2.266.266.935.406 1.97.406 3.064 0 1.144-.134 2.173-.406 3.066-.266.897-.644 1.647-1.143 2.248a5.034 5.034 0 0 1-1.83 1.395c-.711.332-1.607.502-2.606.502zm-14.977-15.45-.125-.036a6.796 6.796 0 0 0-1.565-.702 8.111 8.111 0 0 0-2.348-.328c-.97 0-1.863.152-2.658.447a6.094 6.094 0 0 0-2.065 1.248 5.398 5.398 0 0 0-1.349 1.959 6.532 6.532 0 0 0-.452 2.436c0 1.135.244 2.145.73 3.037.237.448.543.856.914 1.221l.166.164-.166.164a4.489 4.489 0 0 0-.533.627c-.215.3-.38.601-.495.908-.134.345-.201.69-.201 1.018 0 .834.25 1.501.742 1.985l.197.194-.227.159a6.792 6.792 0 0 0-1.01.84c-.804.843-1.198 1.833-1.198 3.003 0 .748.191 1.471.565 2.125.367.653.906 1.227 1.604 1.697.663.447 1.487.81 2.436 1.069.918.256 1.99.382 3.217.382 1.173 0 2.269-.154 3.248-.452.978-.292 1.82-.705 2.54-1.242.722-.538 1.293-1.156 1.703-1.846.42-.741.637-1.52.637-2.302 0-.912-.246-1.664-.72-2.248a4.2 4.2 0 0 0-1.747-1.213c-.646-.258-1.381-.43-2.206-.517a43.918 43.918 0 0 0-2.313-.177l-.567-.026-1.687-.08a9.827 9.827 0 0 1-1.813-.256c-.44-.113-.78-.268-1.044-.487a.511.511 0 0 1-.102-.124c-.072-.119-.111-.276-.111-.484 0-.09.025-.185.087-.347.055-.146.133-.28.287-.505.157-.2.31-.36.47-.484.059-.058.104-.092.198-.153l.1-.066.114.043c.815.307 1.741.464 2.745.464.977 0 1.848-.141 2.64-.43a6.077 6.077 0 0 0 2.084-1.248 5.488 5.488 0 0 0 1.35-1.945c.309-.727.469-1.565.469-2.45a6.31 6.31 0 0 0-.48-2.483c-.026-.06-.06-.125-.072-.148l-.168-.33.374-.005 1.247-.018c.265 0 .503-.085.721-.253.264-.203.414-.506.414-.83v-.975h-4.577zm-4.038 9.039c-.712 0-1.347-.098-1.88-.298a3.795 3.795 0 0 1-1.345-.813c-.355-.332-.63-.742-.848-1.25-.205-.478-.307-1.052-.307-1.671 0-.63.1-1.19.304-1.664a3.39 3.39 0 0 1 .851-1.257 3.953 3.953 0 0 1 1.34-.812c.543-.203 1.162-.3 1.885-.3.713 0 1.348.099 1.882.298.513.18.96.455 1.344.814.355.331.63.741.848 1.25.205.477.307 1.052.307 1.67 0 .628-.1 1.187-.304 1.682-.199.508-.475.924-.829 1.235-.332.328-.776.596-1.333.819a5.94 5.94 0 0 1-1.915.297zm.217 12.502c-.948 0-1.79-.096-2.493-.292-.702-.182-1.305-.44-1.783-.76-.46-.301-.809-.645-1.046-1.035-.228-.388-.338-.746-.338-1.146 0-.346.058-.644.184-.933a2.93 2.93 0 0 1 .588-.83c.253-.25.565-.474.953-.695.346-.19.699-.352 1.076-.493l.12-.013c.663.102 1.217.16 1.795.175a1117.034 1117.034 0 0 0 2.145.107c.784.04 1.448.096 2.037.179.643.082 1.153.199 1.557.371.383.16.68.359.903.62.182.224.268.54.268.944 0 .523-.139.976-.434 1.421-.293.451-.712.846-1.28 1.225a7.234 7.234 0 0 1-1.947.842c-.677.211-1.462.313-2.305.313zM36.083 74.997c-1.317 0-2.487.23-3.488.689a7.388 7.388 0 0 0-2.584 1.943c-.693.84-1.214 1.828-1.562 2.974-.338 1.123-.512 2.38-.512 3.716 0 1.339.175 2.596.512 3.698.349 1.134.872 2.122 1.561 2.957a6.906 6.906 0 0 0 2.6 1.942c1.014.448 2.17.673 3.473.673 1.29 0 2.464-.227 3.474-.673a6.904 6.904 0 0 0 2.598-1.941c.69-.836 1.213-1.824 1.56-2.957.34-1.126.514-2.367.514-3.699 0-1.336-.175-2.593-.513-3.715-.352-1.144-.878-2.147-1.56-2.973a7.099 7.099 0 0 0-2.604-1.945c-.999-.459-2.168-.689-3.47-.689zm0 16.516c-1.012 0-1.909-.169-2.64-.501a5.036 5.036 0 0 1-1.832-1.396c-.499-.6-.877-1.351-1.143-2.25a11.25 11.25 0 0 1-.406-3.064c0-1.144.134-2.173.406-3.067.27-.908.65-1.67 1.143-2.265a5.078 5.078 0 0 1 1.832-1.414c.75-.341 1.636-.519 2.622-.519 1.02 0 1.898.172 2.621.519a5.08 5.08 0 0 1 1.834 1.416c.5.621.877 1.373 1.142 2.266.265.935.405 1.97.405 3.064 0 1.144-.134 2.173-.406 3.066-.265.897-.644 1.647-1.143 2.248a5.034 5.034 0 0 1-1.83 1.395c-.715.334-1.595.502-2.605.502zm27.131-43.361-.002.338a13.371 13.371 0 0 1-.05.922c-.014.16-.03.317-.046.475a15.115 15.115 0 0 1-.731 3.224l-.01.001a15.372 15.372 0 0 1-4.39 6.572l-.328.291h-12.62a2.99 2.99 0 0 0-.382.025l2.401-2.287h9.715a13.135 13.135 0 0 0 2.881-3.96c.132-.28.255-.566.365-.858.035-.08.064-.164.093-.248.08-.209.152-.417.22-.628.003-.003.003-.003 0-.005.113-.354.21-.717.289-1.077a10.508 10.508 0 0 0 .2-1.165 13.24 13.24 0 0 0 .102-1.548v-.072c0-.115-.003-.228-.004-.34a12.554 12.554 0 0 0-.065-.999 9.627 9.627 0 0 0-.08-.614 9.139 9.139 0 0 0-.06-.368 6.436 6.436 0 0 0-.061-.321 3.99 3.99 0 0 0-.073-.317 4.727 4.727 0 0 0-.077-.316 9.564 9.564 0 0 0-.179-.623 11.115 11.115 0 0 0-.26-.741c-1.906-4.95-6.766-8.474-12.446-8.474-.131 0-.261.001-.39.006l-.016-.013h-.002c-.605.019-1.206.075-1.8.175-.693-.633-1.37-1.257-2.015-1.869a16.33 16.33 0 0 1 1.584-.353c-.006-.003-.012-.01-.02-.017l.459-.048.025-.004a15.379 15.379 0 0 1 2.175-.151c6.238 0 11.63 3.624 14.122 8.85.044.096.088.189.129.283.129.282.25.569.36.858v.005a12.49 12.49 0 0 1 .395 1.186 14.328 14.328 0 0 1 .466 2.247c.016.13.033.259.045.388.054.517.081 1.041.081 1.57zm-8.035 5.786v.722h-2.301v-.722c0-.084-.003-.168-.004-.252 0-.058-.005-.116-.007-.176l-.001-.022a.01.01 0 0 0 0-.008c-.007-.107-.013-.214-.021-.32-.004-.069-.012-.136-.02-.204-.005-.06-.014-.117-.022-.177a15.28 15.28 0 0 0-.071-.475 2.563 2.563 0 0 0-.029-.159 5.672 5.672 0 0 0-.057-.277c-.019-.084-.036-.17-.06-.255l-.067-.255a4.506 4.506 0 0 0-.073-.25 3.877 3.877 0 0 0-.08-.252c-.003-.008-.003-.014-.007-.02a10.804 10.804 0 0 0-.371-.973 7.083 7.083 0 0 0-.105-.242l-.146-.306a7.179 7.179 0 0 0-.151-.302c-.051-.103-.107-.203-.162-.305a9.6 9.6 0 0 0-.168-.302 3.687 3.687 0 0 0-.14-.238 5.76 5.76 0 0 0-.144-.24 20.948 20.948 0 0 0-1.167-1.684c-1.943-2.535-4.56-4.917-7.134-7.263-.04-.036-.079-.074-.121-.111-.246-.223-.491-.446-.736-.671-2.14-1.956-4.128-3.836-5.6-5.77l-.009-.011a41.88 41.88 0 0 1-2.18-3.143l-.524-.84c.01.005.02.007.03.013a29.176 29.176 0 0 1-.852-1.558c.657.177 1.29.417 2.014.687.401.152.823.308 1.271.464a38.818 38.818 0 0 0 2.09 3.012c.256.334.529.672.82 1.007.57.658 1.205 1.321 1.883 1.991a74.298 74.298 0 0 0 1.765 1.687h.003c.555.516 1.126 1.037 1.706 1.566l.63.572c2.621 2.396 5.354 4.962 7.342 7.788v.002c.122.176.243.35.358.526.177.266.346.531.507.803.08.135.161.269.236.404.08.134.152.27.225.41.1.182.191.365.281.552.056.11.107.222.16.333.107.236.212.475.306.716.039.098.077.2.115.3.026.077.055.152.083.23.027.076.052.152.077.228l.071.224c.05.15.094.302.135.454.02.078.04.153.058.23.023.085.044.171.063.26.02.08.038.16.053.239a14.718 14.718 0 0 1 .123.681c.012.106.028.212.041.32.002.008.004.02.004.03l.038.347.025.352a12.289 12.289 0 0 1 .017.633zM90 35.92c0 .156-.002.316-.008.471-.005.197-.01.392-.022.59-.013.23-.03.465-.05.696a20.575 20.575 0 0 1-.228 1.696c-.03.16-.06.317-.093.477-.07.343-.148.686-.24 1.023-.07.282-.15.56-.236.836-.035.114-.072.225-.108.336-.034.098-.067.2-.103.295a19.236 19.236 0 0 1-2.04 4.161c-.007.018-.02.034-.03.05l-.009.011-1.448 2.216-.597-2.582c-.05-.214-.103-.425-.153-.638a74.474 74.474 0 0 0-.146-.546c-.007-.028-.012-.059-.023-.088a33.606 33.606 0 0 0-.574-1.909l-.13-.388v-.001a33.143 33.143 0 0 0-.27-.763c-.05-.126-.098-.252-.147-.38a33.197 33.197 0 0 0-.426-1.052 36.105 36.105 0 0 0-1.186-2.533 35.468 35.468 0 0 0-1.708-2.928l.002-.008c-.311-.48-.63-.956-.967-1.421a15.67 15.67 0 0 1 .93-2.53c.318.405.626.817.924 1.236l.008-.008.29.428.05.076.292.433c.295.438.582.884.856 1.333.091.152.186.301.273.453.09.148.179.3.267.454.082.138.16.278.24.42a37 37 0 0 1 .516.96v.003c.113.212.219.425.326.64.035.067.068.137.103.207.087.174.171.352.254.528l.184.403c.063.133.125.266.18.4.04.088.078.174.115.263.084.188.166.382.246.574.008.019.014.036.025.057v.003c.205.49.397.988.576 1.49a27.727 27.727 0 0 1 .528 1.565 17.028 17.028 0 0 0 1.287-4.34c.017-.101.03-.204.046-.31.016-.102.028-.202.038-.302.01-.084.022-.169.03-.25a17.283 17.283 0 0 0-.117-4.512l-.062-.361c-.021-.111-.04-.223-.064-.334-.043-.216-.09-.43-.141-.644-.054-.214-.106-.427-.168-.636a17.139 17.139 0 0 0-4.722-7.803 19.532 19.532 0 0 0-4.28 5.322 19.228 19.228 0 0 0-1.71 4.29 22.467 22.467 0 0 0-.245 1.066c-.039.178-.07.357-.102.54a21.226 21.226 0 0 0-.18 1.336c-.011.099-.02.202-.027.3-.017.184-.03.367-.039.554-.01.15-.016.3-.02.453l-.007.213c-.002.144-.005.287-.005.433v.012a19.42 19.42 0 0 0 .058 1.468 23.384 23.384 0 0 0 5.155 13.752c.297.373.609.736.934 1.094a23.713 23.713 0 0 0 4.187 3.63l3.053 2.07H63.098c-.143 0-.284.01-.42.03l2.373-2.295h17.116a25.561 25.561 0 0 1-1.935-1.912 25.649 25.649 0 0 1-6.675-16.195c-.02-.235-.03-.469-.044-.704-.005-.146-.009-.29-.011-.436a14.352 14.352 0 0 1-.008-.502v-.012c0-.205.002-.408.01-.611a14.03 14.03 0 0 1 .03-.698v-.022c.012-.174.023-.347.039-.52.013-.184.031-.368.051-.549.025-.225.056-.45.086-.674a21.989 21.989 0 0 1 .209-1.205c.04-.2.083-.398.127-.598.034-.133.064-.266.1-.398.032-.133.07-.265.106-.395.029-.117.064-.236.099-.353.016-.058.033-.11.05-.169.029-.104.062-.209.097-.314.016-.046.029-.092.045-.14.192-.588.41-1.17.653-1.744a21.66 21.66 0 0 1 6.505-8.5l.005-.004.72-.568.706.597a19.452 19.452 0 0 1 6.409 10.629l.107.517c.033.171.06.344.092.518.028.172.054.345.078.519.022.176.047.352.065.528.02.178.038.354.052.53.011.174.027.351.035.525v.014c.009.14.014.279.017.419l.008.203c.003.147.005.293.005.439zM57.191 16.749a38.464 38.464 0 0 1 17.273 8.123 22.522 22.522 0 0 0-1.136 2.018 38.22 38.22 0 0 0-1.054-.858c0 .003-.003.004-.003.004l-.39-.298a35.996 35.996 0 0 0-15.658-6.847v-.008c-.277-.051-.56-.097-.844-.138v-.006a5.307 5.307 0 0 0-1.044-2.425 5.4 5.4 0 0 0-4.29-2.107c-2.687 0-4.921 1.955-5.329 4.507l-.002.015a35.937 35.937 0 0 0-6.925 1.716h-.003a33.442 33.442 0 0 0-2.378.945l-.028.01-.007.004c-.448.179-.91.401-1.352.646.632.166 1.22.364 1.78.568.28.098.555.204.824.307 1.737.652 3.377 1.274 6.032 1.274 2.298 0 4.192-.472 5.526-1.367-.644-.667-1.045-1.533-1.165-2.558a5.653 5.653 0 0 1-.043-.543v-.014c0-.056-.008-.264 0-.342.003-.073.026-.258.035-.337l.012-.032a2.865 2.865 0 0 1 2.828-2.37 2.854 2.854 0 0 1 2.867 2.804c.008.124.01.256.01.39 0 1.378-.843 2.615-1.641 3.475a8.893 8.893 0 0 1-.51.516v.014l-.221.19-.174.151c-.052.045-.106.088-.16.132-.059.045-.114.09-.174.135-.06.044-.117.09-.178.13a6.55 6.55 0 0 1-.403.272h-.002a7.25 7.25 0 0 1-.574.329 6.8 6.8 0 0 1-.402.2 8.81 8.81 0 0 1-.625.264.197.197 0 0 1-.058.022c-.137.054-.28.1-.422.147a10.1 10.1 0 0 1-1.058.298c-1.055.246-2.22.367-3.468.367-2.393 0-4.136-.459-5.624-.975-.425-.149-.829-.3-1.22-.448-.263-.1-.523-.198-.78-.29a.023.023 0 0 1-.009-.003l-.08-.035a45.221 45.221 0 0 1-2.593-1.125 74.442 74.442 0 0 1-1.025-.494 30.14 30.14 0 0 1-1.318-.692c0-.002-.006-.002-.008-.004l.021-.022.475-.49c.06-.062.173-.177.306-.309a8 8 0 0 1 .7-.626 1.277 1.277 0 0 1 1.387-.884h.002c.179-.105.356-.2.534-.29a11 11 0 0 1 .974-.449c.03-.017.065-.03.096-.042a38.029 38.029 0 0 1 8.42-2.584 7.697 7.697 0 0 1 7.13-4.772 7.698 7.698 0 0 1 7.146 4.81zm-7.914 2.626-.013.198c0 .086.002.17.008.253.01.086.018.17.028.25.018.124.04.239.075.35.095.326.25.597.463.82.343-.466.549-.904.598-1.276.006-.048.008-.095.008-.14 0-.1-.002-.196-.005-.284l-.003-.068c0-.025-.005-.048-.006-.068a.579.579 0 0 0-.58-.513.585.585 0 0 0-.559.402l-.014.076zm12.009-12.55 1.516 1.266a4.986 4.986 0 0 1-1.11.954l-.006.003-.002.002-4.128 3.926a9.822 9.822 0 0 0-1.38-1.405l1.718-1.635a5.107 5.107 0 0 1-3.252-1.84 5.17 5.17 0 0 1-2.607-.289 5.028 5.028 0 0 1-1.303-.743l-.001 2.256a10.486 10.486 0 0 0-1.987.013l.005-6.128v-.444l1.017.046h.968v.047a2.945 2.945 0 0 0 .248 1.321l.01-.003c.02.061.046.12.07.178l.07.13-.01.004c.333.685.914 1.22 1.639 1.5.304.12.619.188.937.208a4.792 4.792 0 0 1-.14-1.407 4.79 4.79 0 0 1 .346-1.601l.01-.025A4.991 4.991 0 0 1 57.12.233L57.878 0l.396.68a4.888 4.888 0 0 1 .318 4.3l-.01.022a4.946 4.946 0 0 1-1.932 2.336c.246.199.525.362.832.48a3.1 3.1 0 0 0 2.374-.052l-.002-.014c.037-.01.07-.026.108-.04a.662.662 0 0 0 .07-.033l.004.008a2.89 2.89 0 0 0 .336-.148c.362-.186.664-.421.914-.714zm-5.674-1.158c.228-.15.428-.327.602-.53.222-.252.396-.539.522-.852l.008-.022c.23-.574.275-1.188.14-1.773a3.028 3.028 0 0 0-1.124 1.39l-.01.026a2.978 2.978 0 0 0-.138 1.762z" fill="#FFF"/></svg>