<svg xmlns="http://www.w3.org/2000/svg" width="249" height="350" viewBox="0 0 249 350">
    <g fill="none" fill-rule="evenodd">
        <path d="M78.317 23c-.174 23.48 18.72 42.656 42.2 42.83l.315.001h59.239c24.261 0 43.929 19.668 43.929 43.93 0 24.261-19.668 43.93-43.93 43.93h-73.22c-23.806 0-43.105 19.298-43.105 43.105s19.3 43.106 43.106 43.106h42.445c24.11 0 43.655 19.545 43.655 43.655s-19.545" stroke-width="2" stroke-linejoin="round" stroke-linecap="round" stroke-dasharray="6" stroke="#4AD9BD"></path>
        <g transform="translate(53)">
            <circle cx="25" cy="25" r="25" fill="#4AD9BD"></circle>
            <text fill="#FFF" font-family="OpenSans-ExtraBold, Open Sans" font-size="33.333" font-weight="600">
                <tspan x="15.234" y="36">1</tspan>
            </text>
        </g>
        <g transform="translate(199 86)">
            <circle cx="25" cy="25" r="25" fill="#4AD9BD"></circle>
            <text fill="#FFF" font-family="OpenSans-ExtraBold, Open Sans" font-size="33.333" font-weight="600">
                <tspan x="15.234" y="36">2</tspan>
            </text>
        </g>
        <g transform="translate(37 170)">
            <circle cx="25" cy="25" r="25" fill="#4AD9BD"></circle>
            <text fill="#FFF" font-family="OpenSans-ExtraBold, Open Sans" font-size="33.333" font-weight="600">
                <tspan x="15.234" y="36">3</tspan>
            </text>
        </g>
        <g transform="translate(170 260)">
            <circle cx="25" cy="25" r="25" fill="#4AD9BD"></circle>
            <text fill="#FFF" font-family="OpenSans-ExtraBold, Open Sans" font-size="33.333" font-weight="600">
                <tspan x="15.234" y="36">4</tspan>
            </text>
        </g>

        <g transform="translate(135 430)">
            <circle cx="25" cy="25" r="25" fill="#4AD9BD"></circle>
            <text fill="#FFF" font-family="OpenSans-ExtraBold, Open Sans" font-size="33.333" font-weight="600">
                <tspan x="15.234" y="36">6</tspan>
            </text>
        </g>
    </g>
</svg>
